<?xml version="1.0" encoding="utf-8"?>
<!-- Generator: Adobe Illustrator 27.5.0, SVG Export Plug-In . SVG Version: 6.00 Build 0)  -->
<svg version="1.1" id="Layer_1" xmlns="http://www.w3.org/2000/svg" xmlns:xlink="http://www.w3.org/1999/xlink" x="0px" y="0px"
	 viewBox="0 0 1000 1000" style="enable-background:new 0 0 1000 1000;" xml:space="preserve">
<path d="M497.36,80.14c-230.53,0-417.41,186.88-417.41,417.41s186.88,417.42,417.41,417.42c230.54,0,417.42-186.89,417.42-417.42
	S727.9,80.14,497.36,80.14z M216.21,738.29C216.21,738.28,216.21,738.28,216.21,738.29c-21.14-0.2-38.22-17.4-38.22-38.59
	c0-5.08,0.99-9.92,2.77-14.36l123.81-401.97l38.77,109.6L267.4,661.64l167.59-0.01c3.63,10.47,7.25,20.94,10.88,31.41
	c0,0,2.75,10.29,8.13,23.47c1.07,2.63,2.4,6.17,5.31,10c0.15,0.2,2.2,3.14,5.01,5.75c3.3,3.06,7.44,5.86,7.67,6.03H216.21z
	 M783.43,738.29c-19.11,0-34.96-13.89-38.04-32.12L636.87,387.95l-99.45,322.8c-0.08,0.26-0.16,0.52-0.24,0.77l-0.03,0.11l0,0
	c-5.02,15.47-19.55,26.66-36.7,26.66c-0.15,0-0.3-0.01-0.45-0.01c-0.15,0-0.3,0.01-0.45,0.01c-19.07,0-34.89-13.83-38.02-32.01
	L316.42,285.14c-3.13-5.57-4.92-12-4.92-18.85c0-21.31,17.28-38.59,38.59-38.59c18.84,0,34.51,13.5,37.9,31.35l109.79,318.66
	l98.58-320.03c0.43-1.87,0.99-3.69,1.68-5.45l0,0l0,0c5.62-14.35,19.58-24.52,35.93-24.52c18.84,0,34.51,13.5,37.9,31.35
	L817.36,681.3c2.97,5.47,4.66,11.74,4.66,18.4C822.02,721.01,804.74,738.29,783.43,738.29z"/>
</svg>
